<svg width="64" height="58" viewBox="0 0 64 58" fill="none" xmlns="http://www.w3.org/2000/svg">
<path d="M35 3.00004V8.00009H38.9401C40.1561 8.00009 41.3521 8.3201 42.4081 8.9241L47.5682 11.8681C47.7229 11.9561 47.8882 12.0001 48.0642 12.0001H57.0003C57.796 12.0001 58.559 12.3162 59.1216 12.8788C59.6842 13.4414 60.0003 14.2045 60.0003 15.0002C60.0003 15.7958 59.6842 16.5589 59.1216 17.1215C58.559 17.6841 57.796 18.0002 57.0003 18.0002H55.2923L63.7364 36.7684C63.9859 37.3237 64.0606 37.9417 63.9506 38.5404C63.8406 39.1391 63.551 39.6902 63.1204 40.1205L61.0003 38.0004L63.1164 40.1245L63.1124 40.1325L63.1044 40.1405L63.0804 40.1645L63.0564 40.1845L63.0164 40.2245L62.8364 40.3845C61.991 41.0911 61.0763 41.6912 60.0923 42.1845C58.2243 43.1205 55.5203 44.0005 52.0002 44.0005C49.1983 44.0333 46.4274 43.4114 43.9081 42.1845C42.9261 41.6941 42.0051 41.09 41.1641 40.3845L40.9841 40.2245L40.9201 40.1645L40.8961 40.1405L40.8801 40.1245V40.1205C40.4495 39.6902 40.1599 39.1391 40.0499 38.5404C39.9399 37.9417 40.0146 37.3237 40.2641 36.7684L48.7122 18.0002H48.0642C46.8442 18.0002 45.6482 17.6842 44.5921 17.0762L39.4321 14.1322C39.2811 14.0458 39.1101 14.0003 38.9361 14.0002H35V52.0006H45.0002C45.7958 52.0006 46.5589 52.3167 47.1215 52.8793C47.6841 53.4419 48.0002 54.205 48.0002 55.0006C48.0002 55.7963 47.6841 56.5594 47.1215 57.122C46.5589 57.6846 45.7958 58.0007 45.0002 58.0007H18.9998C18.2042 58.0007 17.4411 57.6846 16.8785 57.122C16.3159 56.5594 15.9998 55.7963 15.9998 55.0006C15.9998 54.205 16.3159 53.4419 16.8785 52.8793C17.4411 52.3167 18.2042 52.0006 18.9998 52.0006H29V14.0002H25.0639C24.8899 14.0003 24.7189 14.0458 24.5679 14.1322L19.4119 17.0802C18.3518 17.6802 17.1558 18.0002 15.9358 18.0002H15.2878L23.7359 36.7684C23.9854 37.3237 24.0601 37.9417 23.9501 38.5404C23.8401 39.1391 23.5505 39.6902 23.1199 40.1205L20.9999 38.0004L23.1159 40.1245L23.1119 40.1325L23.1039 40.1405L23.0799 40.1645L23.0159 40.2245L22.8359 40.3845C21.9906 41.0911 21.0759 41.6912 20.0919 42.1845C18.2238 43.1205 15.5198 44.0005 11.9998 44.0005C9.19782 44.0333 6.42692 43.4114 3.90767 42.1845C2.92559 41.6941 2.00459 41.09 1.16364 40.3845L0.983638 40.2245L0.919637 40.1645L0.895637 40.1405L0.879637 40.1245V40.1205C0.448999 39.6902 0.159439 39.1391 0.0494122 38.5404C-0.0606145 37.9417 0.0140987 37.3237 0.26363 36.7684L8.71173 18.0002H6.99971C6.20405 18.0002 5.44098 17.6841 4.87836 17.1215C4.31575 16.5589 3.99967 15.7958 3.99967 15.0002C3.99967 14.2045 4.31575 13.4414 4.87836 12.8788C5.44098 12.3162 6.20405 12.0001 6.99971 12.0001H15.9358C16.1112 12.0007 16.2836 11.9552 16.4358 11.8681L21.5879 8.9201C22.6479 8.3201 23.8439 8.00009 25.0639 8.00009H29V3.00004C29 2.20438 29.316 1.44131 29.8787 0.87869C30.4413 0.316074 31.2043 0 32 0C32.7957 0 33.5587 0.316074 34.1213 0.87869C34.684 1.44131 35 2.20438 35 3.00004ZM46.7802 36.9084C47.9202 37.4484 49.6522 38.0004 52.0002 38.0004C54.3483 38.0004 56.0803 37.4484 57.2203 36.9084L52.0002 25.3083L46.7802 36.9084ZM6.77971 36.9084C7.91972 37.4484 9.65174 38.0004 11.9998 38.0004C14.3478 38.0004 16.0798 37.4484 17.2198 36.9084L11.9998 25.3083L6.77971 36.9084Z" fill="#075FB8"/>
</svg>
